<svg width="113" height="133" viewBox="0 0 113 133" fill="none" xmlns="http://www.w3.org/2000/svg">
<g filter="url(#filter0_d_269_143)">
<path d="M47.86 124.61C40.2667 124.61 33.6933 123.25 28.14 120.53C22.7 117.697 18.1667 113.9 14.54 109.14C11.0267 104.267 8.36333 98.77 6.55 92.65C4.85 86.53 4 80.07 4 73.27C4 64.6567 5.30333 56.0433 7.91 47.43C10.63 38.8167 14.54 30.94 19.64 23.8C24.8533 16.66 31.2 10.9367 38.68 6.62999C46.16 2.20999 54.7167 0 64.35 0C71.9433 0 78.46 1.41666 83.9 4.24999C89.4533 6.96999 93.9867 10.7667 97.5 15.64C101.127 20.4 103.79 25.84 105.49 31.96C107.303 38.08 108.21 44.54 108.21 51.34C108.21 59.84 106.85 68.4533 104.13 77.18C101.523 85.7933 97.6133 93.67 92.4 100.81C87.3 107.95 81.01 113.73 73.53 118.15C66.05 122.457 57.4933 124.61 47.86 124.61ZM54.15 103.02C58.1167 103.02 61.5733 101.66 64.52 98.94C67.4667 96.22 69.9033 92.65 71.83 88.23C73.87 83.6967 75.4 78.71 76.42 73.27C77.44 67.83 77.95 62.3333 77.95 56.78C77.95 50.66 77.27 44.9367 75.91 39.61C74.6633 34.17 72.6233 29.8067 69.79 26.52C67.07 23.12 63.5 21.42 59.08 21.42C55.2267 21.42 51.77 22.78 48.71 25.5C45.65 28.1067 43.0433 31.6767 40.89 36.21C38.7367 40.63 37.0933 45.56 35.96 51C34.94 56.3267 34.43 61.71 34.43 67.15C34.43 73.3833 35.1667 79.22 36.64 84.66C38.1133 90.1 40.3233 94.52 43.27 97.92C46.2167 101.32 49.8433 103.02 54.15 103.02Z" fill="#9D182B"/>
</g>
<defs>
<filter id="filter0_d_269_143" x="0" y="0" width="112.21" height="132.61" filterUnits="userSpaceOnUse" color-interpolation-filters="sRGB">
<feFlood flood-opacity="0" result="BackgroundImageFix"/>
<feColorMatrix in="SourceAlpha" type="matrix" values="0 0 0 0 0 0 0 0 0 0 0 0 0 0 0 0 0 0 127 0" result="hardAlpha"/>
<feOffset dy="4"/>
<feGaussianBlur stdDeviation="2"/>
<feComposite in2="hardAlpha" operator="out"/>
<feColorMatrix type="matrix" values="0 0 0 0 0 0 0 0 0 0 0 0 0 0 0 0 0 0 0.25 0"/>
<feBlend mode="normal" in2="BackgroundImageFix" result="effect1_dropShadow_269_143"/>
<feBlend mode="normal" in="SourceGraphic" in2="effect1_dropShadow_269_143" result="shape"/>
</filter>
</defs>
</svg>
