<svg width="696" height="138" viewBox="0 0 696 138" fill="none" xmlns="http://www.w3.org/2000/svg">
<path d="M43.8601 137.02C36.2668 137.02 29.6935 135.66 24.1401 132.94C18.7001 130.107 14.1668 126.31 10.5401 121.55C7.02678 116.677 4.36345 111.18 2.55012 105.06C0.850117 98.9401 0.000117324 92.4801 0.000117324 85.6801C0.000117324 77.0667 1.30345 68.4534 3.91012 59.8401C6.63012 51.2267 10.5401 43.3501 15.6401 36.2101C20.8535 29.0701 27.2001 23.3467 34.6801 19.0401C42.1601 14.6201 50.7168 12.4101 60.3501 12.4101C67.9435 12.4101 74.4601 13.8267 79.9001 16.6601C85.4535 19.3801 89.9868 23.1767 93.5001 28.0501C97.1268 32.8101 99.7901 38.2501 101.49 44.3701C103.303 50.4901 104.21 56.9501 104.21 63.7501C104.21 72.2501 102.85 80.8634 100.13 89.5901C97.5235 98.2034 93.6135 106.08 88.4001 113.22C83.3001 120.36 77.0101 126.14 69.5301 130.56C62.0501 134.867 53.4935 137.02 43.8601 137.02ZM50.1501 115.43C54.1168 115.43 57.5735 114.07 60.5201 111.35C63.4668 108.63 65.9035 105.06 67.8301 100.64C69.8701 96.1067 71.4001 91.1201 72.4201 85.6801C73.4401 80.2401 73.9501 74.7434 73.9501 69.1901C73.9501 63.0701 73.2701 57.3467 71.9101 52.0201C70.6635 46.5801 68.6235 42.2167 65.7901 38.9301C63.0701 35.5301 59.5001 33.8301 55.0801 33.8301C51.2268 33.8301 47.7701 35.1901 44.7101 37.9101C41.6501 40.5167 39.0435 44.0867 36.8901 48.6201C34.7368 53.0401 33.0935 57.9701 31.9601 63.4101C30.9401 68.7367 30.4301 74.1201 30.4301 79.5601C30.4301 85.7934 31.1668 91.6301 32.6401 97.0701C34.1135 102.51 36.3235 106.93 39.2701 110.33C42.2168 113.73 45.8435 115.43 50.1501 115.43ZM132.579 136.34C128.386 136.34 124.589 134.697 121.189 131.41C117.789 128.01 116.089 123.307 116.089 117.3C116.089 114.353 116.486 111.01 117.279 107.27C118.072 103.53 118.922 99.7334 119.829 95.8801C120.849 92.0267 121.756 88.4001 122.549 85.0001C123.342 81.6001 123.739 78.8234 123.739 76.6701C123.739 74.4034 123.286 72.6467 122.379 71.4001C121.472 70.0401 120.282 69.3601 118.809 69.3601C116.882 69.3601 114.786 70.4934 112.519 72.7601L111.499 72.0801C111.386 70.2667 111.782 68.1134 112.689 65.6201C113.596 63.1267 114.956 60.7467 116.769 58.4801C118.696 56.1001 121.132 54.1167 124.079 52.5301C127.026 50.9434 130.539 50.1501 134.619 50.1501C140.626 50.1501 145.046 51.9067 147.879 55.4201C150.826 58.8201 152.299 63.0134 152.299 68.0001C152.299 69.8134 152.129 71.5701 151.789 73.2701C154.169 69.7567 157.116 66.2434 160.629 62.7301C164.142 59.1034 167.996 56.1001 172.189 53.7201C176.496 51.3401 180.916 50.1501 185.449 50.1501C190.776 50.1501 194.402 51.8501 196.329 55.2501C198.256 58.6501 199.219 62.9001 199.219 68.0001C199.219 72.7601 198.709 77.8601 197.689 83.3001C196.669 88.7401 195.649 94.0101 194.629 99.1101C193.609 104.097 193.099 108.29 193.099 111.69C193.099 116.223 194.402 118.49 197.009 118.49C198.369 118.49 199.559 118.093 200.579 117.3C201.599 116.393 202.279 115.543 202.619 114.75L203.809 115.26C203.809 119.453 202.619 123.137 200.239 126.31C197.972 129.483 195.082 131.977 191.569 133.79C188.056 135.49 184.486 136.34 180.859 136.34C176.439 136.34 172.529 134.81 169.129 131.75C165.729 128.69 164.029 123.703 164.029 116.79C164.029 112.71 164.539 108.29 165.559 103.53C166.692 98.7701 167.769 94.1801 168.789 89.7601C169.809 85.3401 170.319 81.7134 170.319 78.8801C170.319 77.1801 169.979 75.8767 169.299 74.9701C168.732 73.9501 167.656 73.4401 166.069 73.4401C163.462 73.4401 160.572 74.6301 157.399 77.0101C154.339 79.3901 151.676 82.5634 149.409 86.5301C147.256 90.4967 146.179 94.8601 146.179 99.6201C146.179 102.68 146.519 105.627 147.199 108.46C147.992 111.293 148.389 114.353 148.389 117.64C148.389 123.76 146.802 128.407 143.629 131.58C140.456 134.753 136.772 136.34 132.579 136.34ZM275.008 136.68C271.042 136.68 267.585 135.377 264.638 132.77C261.692 130.163 260.218 125.913 260.218 120.02C260.218 119.453 260.218 118.887 260.218 118.32C260.218 117.753 260.275 117.187 260.388 116.62C256.988 123.42 253.135 128.463 248.828 131.75C244.635 134.923 240.385 136.51 236.078 136.51C232.112 136.51 228.372 135.15 224.858 132.43C221.345 129.597 218.512 125.46 216.358 120.02C214.205 114.58 213.128 108.007 213.128 100.3C213.128 92.3667 214.205 85.2834 216.358 79.0501C218.625 72.8167 221.572 67.5467 225.198 63.2401C228.825 58.9334 232.792 55.7034 237.098 53.5501C241.405 51.2834 245.598 50.1501 249.678 50.1501C254.212 50.1501 258.292 51.5667 261.918 54.4001C265.545 57.1201 268.038 61.4834 269.398 67.4901C269.738 65.5634 269.965 63.8067 270.078 62.2201C270.305 60.6334 270.418 59.5567 270.418 58.9901C270.532 55.9301 272.062 53.6634 275.008 52.1901C278.068 50.7167 281.412 49.9801 285.038 49.9801C288.212 49.9801 291.215 50.6034 294.048 51.8501C296.882 53.0967 298.808 55.1934 299.828 58.1401L300.168 59.1601C298.808 62.2201 297.448 65.9034 296.088 70.2101C294.728 74.5167 293.482 79.0501 292.348 83.8101C291.215 88.4567 290.308 93.0467 289.628 97.5801C288.948 102 288.608 105.91 288.608 109.31C288.608 113.05 289.005 115.657 289.798 117.13C290.592 118.49 291.555 119.17 292.688 119.17C294.615 119.17 296.372 117.81 297.958 115.09L299.318 115.77C299.318 119.623 298.072 123.137 295.578 126.31C293.085 129.483 289.968 132.033 286.228 133.96C282.488 135.773 278.748 136.68 275.008 136.68ZM247.298 115.09C250.245 115.09 253.475 112.483 256.988 107.27C260.615 101.943 263.732 94.3501 266.338 84.4901C266.565 83.4701 266.792 82.5067 267.018 81.6001C267.245 80.5801 267.415 79.6167 267.528 78.7101C265.715 74.5167 263.788 71.5701 261.748 69.8701C259.822 68.0567 257.895 67.1501 255.968 67.1501C253.135 67.1501 250.472 68.6801 247.978 71.7401C245.598 74.6867 243.615 78.4267 242.028 82.9601C240.555 87.4934 239.818 92.0267 239.818 96.5601C239.818 102.793 240.498 107.44 241.858 110.5C243.332 113.56 245.145 115.09 247.298 115.09ZM415.792 137.02C411.712 137.02 407.066 136.283 401.852 134.81C396.752 133.337 391.369 131.75 385.702 130.05C380.149 128.237 374.596 126.933 369.042 126.14C365.189 129.767 361.562 132.373 358.162 133.96C354.876 135.433 351.929 136.17 349.322 136.17C346.036 136.17 343.259 135.207 340.992 133.28C338.726 131.353 337.026 128.917 335.892 125.97C334.759 122.91 334.192 119.793 334.192 116.62C334.192 113.333 334.759 110.217 335.892 107.27C337.139 104.323 339.009 101.943 341.502 100.13C343.996 98.2034 347.169 97.2401 351.022 97.2401C351.816 97.2401 352.666 97.2967 353.572 97.4101C354.479 97.5234 355.442 97.6934 356.462 97.9201C358.616 91.3467 360.486 84.0934 362.072 76.1601C363.772 68.1134 365.076 60.2367 365.982 52.5301C367.002 44.8234 367.512 38.1367 367.512 32.4701C367.512 30.2034 367.399 28.6167 367.172 27.7101C366.946 26.6901 366.549 25.6701 365.982 24.6501L365.812 24.1401C367.172 20.5134 369.439 17.6801 372.612 15.6401C375.786 13.6001 379.129 12.5801 382.642 12.5801C386.496 12.5801 389.669 13.9967 392.162 16.8301C394.656 19.5501 395.902 24.1401 395.902 30.6001C395.902 34.6801 395.392 39.7801 394.372 45.9001C393.466 51.9067 392.162 58.4234 390.462 65.4501C388.762 72.3634 386.892 79.2201 384.852 86.0201C382.812 92.8201 380.772 98.8834 378.732 104.21C383.719 105.343 388.706 106.647 393.692 108.12C398.792 109.593 403.779 110.33 408.652 110.33C412.392 110.33 415.962 109.65 419.362 108.29C422.876 106.93 426.162 104.437 429.222 100.81C431.489 102.283 433.132 104.38 434.152 107.1C435.286 109.82 435.852 112.71 435.852 115.77C435.852 119.17 435.116 122.513 433.642 125.8C432.282 128.973 430.129 131.637 427.182 133.79C424.236 135.943 420.439 137.02 415.792 137.02ZM480.286 137.02C471.786 137.02 464.759 135.32 459.206 131.92C453.653 128.52 449.516 124.043 446.796 118.49C444.189 112.823 442.886 106.817 442.886 100.47C442.886 94.4634 443.963 88.4567 446.116 82.4501C448.383 76.4434 451.613 71.0034 455.806 66.1301C460.113 61.1434 465.326 57.1767 471.446 54.2301C477.566 51.1701 484.593 49.6401 492.526 49.6401C501.026 49.6401 507.996 51.3967 513.436 54.9101C518.989 58.3101 523.069 62.8434 525.676 68.5101C528.396 74.1767 529.756 80.2401 529.756 86.7001C529.756 92.5934 528.679 98.5434 526.526 104.55C524.373 110.443 521.143 115.883 516.836 120.87C512.643 125.743 507.486 129.653 501.366 132.6C495.246 135.547 488.219 137.02 480.286 137.02ZM484.876 122.57C487.936 122.57 490.486 120.983 492.526 117.81C494.566 114.637 496.096 110.613 497.116 105.74C498.136 100.753 498.646 95.7101 498.646 90.6101C498.646 86.0767 498.193 81.8267 497.286 77.8601C496.493 73.7801 495.246 70.4934 493.546 68.0001C491.846 65.3934 489.636 64.0901 486.916 64.0901C483.969 64.0901 481.419 65.6767 479.266 68.8501C477.226 72.0234 475.696 76.0467 474.676 80.9201C473.656 85.7934 473.146 90.8367 473.146 96.0501C473.146 100.583 473.543 104.89 474.336 108.97C475.243 112.937 476.546 116.223 478.246 118.83C479.946 121.323 482.156 122.57 484.876 122.57ZM559.571 136.51C555.491 136.51 551.864 134.867 548.691 131.58C545.518 128.18 543.931 123.42 543.931 117.3C543.931 114.353 544.271 111.01 544.951 107.27C545.631 103.53 546.424 99.7334 547.331 95.8801C548.238 91.9134 549.031 88.2301 549.711 84.8301C550.391 81.3167 550.731 78.4267 550.731 76.1601C550.731 73.7801 550.278 71.9101 549.371 70.5501C548.578 69.0767 547.501 68.3401 546.141 68.3401C543.988 68.3401 541.778 69.8134 539.511 72.7601L538.491 72.0801C538.378 70.2667 538.774 68.1134 539.681 65.6201C540.588 63.1267 542.004 60.7467 543.931 58.4801C545.858 56.1001 548.294 54.1167 551.241 52.5301C554.301 50.9434 557.871 50.1501 561.951 50.1501C567.958 50.1501 572.321 51.9067 575.041 55.4201C577.761 58.8201 579.121 62.9567 579.121 67.8301C579.121 68.6234 579.064 69.4734 578.951 70.3801C578.951 71.1734 578.894 71.9667 578.781 72.7601C582.861 65.3934 587.111 59.7834 591.531 55.9301C596.064 51.9634 600.258 49.9801 604.111 49.9801C607.738 49.9801 610.401 51.3967 612.101 54.2301C613.801 57.0634 614.651 60.4634 614.651 64.4301C614.651 68.0567 613.914 71.7401 612.441 75.4801C611.081 79.2201 608.984 82.3367 606.151 84.8301C603.431 87.2101 600.088 88.3434 596.121 88.2301L595.441 87.8901C595.328 84.9434 594.364 82.6201 592.551 80.9201C590.738 79.2201 588.698 78.3701 586.431 78.3701C583.371 78.3701 580.481 79.9001 577.761 82.9601C575.154 86.0201 573.851 90.4401 573.851 96.2201C573.851 99.7334 574.248 103.53 575.041 107.61C575.834 111.69 576.231 115.147 576.231 117.98C576.231 121.38 575.438 124.497 573.851 127.33C572.264 130.163 570.224 132.43 567.731 134.13C565.238 135.717 562.518 136.51 559.571 136.51ZM652.432 137.02C644.159 137.02 637.302 135.377 631.862 132.09C626.422 128.69 622.342 124.27 619.622 118.83C616.902 113.277 615.542 107.327 615.542 100.98C615.542 94.9734 616.676 88.9667 618.942 82.9601C621.322 76.8401 624.722 71.2867 629.142 66.3001C633.676 61.3134 639.116 57.2901 645.462 54.2301C651.922 51.1701 659.176 49.6401 667.222 49.6401C677.196 49.6401 684.449 51.9067 688.982 56.4401C693.629 60.8601 695.952 66.2434 695.952 72.5901C695.952 78.0301 694.479 83.0734 691.532 87.7201C688.699 92.2534 684.902 95.9367 680.142 98.7701C675.382 101.49 670.169 102.85 664.502 102.85C661.556 102.85 658.552 102.397 655.492 101.49C652.432 100.583 649.429 99.1667 646.482 97.2401C647.049 104.267 649.089 109.367 652.602 112.54C656.116 115.713 660.309 117.3 665.182 117.3C668.582 117.3 671.982 116.677 675.382 115.43C678.782 114.07 681.899 112.37 684.732 110.33C687.679 108.177 689.946 105.91 691.532 103.53L692.722 104.38C692.722 110.273 691.476 115.317 688.982 119.51C686.602 123.59 683.429 126.933 679.462 129.54C675.496 132.147 671.132 134.073 666.372 135.32C661.726 136.453 657.079 137.02 652.432 137.02ZM656.342 91.1201C659.969 91.1201 662.916 90.1001 665.182 88.0601C667.449 85.9067 669.149 83.4134 670.282 80.5801C671.416 77.7467 671.982 75.2534 671.982 73.1001C671.982 70.4934 671.246 68.3401 669.772 66.6401C668.299 64.8267 666.259 63.9201 663.652 63.9201C661.612 63.9201 659.346 64.6567 656.852 66.1301C654.472 67.6034 652.319 70.1534 650.392 73.7801C648.466 77.2934 647.219 82.2234 646.652 88.5701C650.279 90.2701 653.509 91.1201 656.342 91.1201ZM659.572 43.8601C656.399 45.3334 653.906 45.5034 652.092 44.3701C650.392 43.2367 649.542 41.4801 649.542 39.1001C652.376 35.7001 654.982 31.6767 657.362 27.0301C659.856 22.2701 661.839 17.6234 663.312 13.0901C664.786 8.44341 665.352 4.53341 665.012 1.36008C667.959 0.453408 671.019 0.226741 674.192 0.680075C677.479 1.13341 680.369 2.21008 682.862 3.91007C685.469 5.49674 687.282 7.70674 688.302 10.5401C689.322 13.2601 689.039 16.4334 687.452 20.0601C686.206 23.0067 684.506 25.7834 682.352 28.3901C680.312 30.9967 677.479 33.5467 673.852 36.0401C670.226 38.5334 665.466 41.1401 659.572 43.8601Z" fill="#9D182B"/>
</svg>
