<svg width="1898" height="2511" viewBox="0 0 1898 2511" fill="none" xmlns="http://www.w3.org/2000/svg">
<path d="M1895 163.651C1708.18 514.119 1731.24 2.49992 1576.24 2.49996C1421.24 2.5 1452.24 163.652 1355.74 213.143C1259.25 262.634 1078.34 98.864 816.364 98.8656C554.39 98.8671 1023.33 917.037 1023.33 671.892C1023.33 426.747 621.308 980.775 689.017 1303.1C756.727 1625.43 608.242 1863.52 575.495 1716.73C542.748 1569.94 375.786 1696.25 231.435 1686.46C151.192 1641.85 -6.84665 1596.4 2.93381 1771.54C12.7143 1946.67 298.965 1969.61 440.868 1959.18C568.654 1932.79 728.837 1983.8 575.495 2160.95C275.824 2507.16 1480.91 2343.05 1581.77 2226.53C1650.76 2160.95 1705.95 2174.68 1650.76 2376.85C1595.57 2579.02 1682.19 2513.55 1738.95 2402.57C1762.82 2339.35 1824.1 2189.61 1839.82 2314.3" stroke="#F4BD33" stroke-opacity="0.3" stroke-width="5"/>
</svg>
