<svg width="2109" height="1778" viewBox="0 0 2109 1778" fill="none" xmlns="http://www.w3.org/2000/svg">
<path d="M2089.69 162.238C1875.75 509.632 1902.16 2.49983 1724.66 2.49988C1547.16 2.49992 1582.66 162.238 1472.16 211.295C1361.66 260.352 770.664 28.6899 470.664 28.6915C170.665 28.693 51.1586 245.295 330.163 234.688C609.168 224.082 711.126 261.689 788.663 581.189C866.2 900.688 696.163 1136.69 658.663 991.188C621.163 845.688 429.966 970.883 264.663 961.188C172.774 916.964 -8.20404 871.916 2.99602 1045.52C14.1961 1219.12 341.996 1241.85 504.496 1231.52C650.829 1205.35 834.263 1255.92 658.663 1431.52C315.496 1774.68 1695.5 1612.02 1811 1496.52C1890 1431.52 1953.2 1445.12 1890 1645.52C1826.8 1845.92 1926 1781.02 1991 1671.02C2018.33 1608.35 2088.5 1459.92 2106.5 1583.52" stroke="#F4BD33" stroke-opacity="0.3" stroke-width="5"/>
</svg>
