<svg width="704" height="142" viewBox="0 0 704 142" fill="none" xmlns="http://www.w3.org/2000/svg">
<g filter="url(#filter0_d_243_52)">
<path d="M655.768 133.167C647.495 133.167 640.638 131.523 635.198 128.237C629.758 124.837 625.678 120.417 622.958 114.977C620.238 109.423 618.878 103.473 618.878 97.1267C618.878 91.12 620.011 85.1133 622.278 79.1067C624.658 72.9867 628.058 67.4333 632.478 62.4467C637.011 57.46 642.451 53.4367 648.798 50.3767C655.258 47.3167 662.511 45.7867 670.558 45.7867C680.531 45.7867 687.785 48.0533 692.318 52.5867C696.965 57.0067 699.288 62.39 699.288 68.7367C699.288 74.1767 697.815 79.22 694.868 83.8667C692.035 88.4 688.238 92.0833 683.478 94.9167C678.718 97.6367 673.505 98.9967 667.838 98.9967C664.891 98.9967 661.888 98.5433 658.828 97.6367C655.768 96.73 652.765 95.3133 649.818 93.3867C650.385 100.413 652.425 105.513 655.938 108.687C659.451 111.86 663.645 113.447 668.518 113.447C671.918 113.447 675.318 112.823 678.718 111.577C682.118 110.217 685.235 108.517 688.068 106.477C691.015 104.323 693.281 102.057 694.868 99.6767L696.058 100.527C696.058 106.42 694.811 111.463 692.318 115.657C689.938 119.737 686.765 123.08 682.798 125.687C678.831 128.293 674.468 130.22 669.708 131.467C665.061 132.6 660.415 133.167 655.768 133.167ZM659.678 87.2667C663.305 87.2667 666.251 86.2467 668.518 84.2067C670.785 82.0533 672.485 79.56 673.618 76.7267C674.751 73.8933 675.318 71.4 675.318 69.2467C675.318 66.64 674.581 64.4867 673.108 62.7867C671.635 60.9733 669.595 60.0667 666.988 60.0667C664.948 60.0667 662.681 60.8033 660.188 62.2767C657.808 63.75 655.655 66.3 653.728 69.9267C651.801 73.44 650.555 78.37 649.988 84.7167C653.615 86.4167 656.845 87.2667 659.678 87.2667ZM668.518 40.0067C665.345 41.48 662.851 41.65 661.038 40.5167C659.338 39.3833 658.488 37.6267 658.488 35.2467C661.321 31.8467 663.928 28.1067 666.308 24.0267C668.801 19.8333 670.785 15.7533 672.258 11.7867C673.731 7.70667 674.298 4.08 673.958 0.906668C676.905 -7.7486e-07 679.965 -0.226667 683.138 0.226667C686.425 0.680002 689.315 1.75667 691.808 3.45667C694.301 5.04334 696.001 7.19666 696.908 9.91666C697.815 12.5233 697.361 15.5833 695.548 19.0967C694.075 22.1567 691.411 25.3867 687.558 28.7867C683.705 32.1867 677.358 35.9267 668.518 40.0067Z" fill="#9D182B"/>
</g>
<g filter="url(#filter1_d_243_52)">
<path d="M562.408 132.656C558.328 132.656 554.702 131.013 551.528 127.726C548.355 124.326 546.768 119.566 546.768 113.446C546.768 110.5 547.108 107.156 547.788 103.416C548.468 99.6765 549.262 95.8798 550.168 92.0265C551.075 88.0598 551.868 84.3765 552.548 80.9765C553.228 77.4631 553.569 74.5731 553.569 72.3065C553.569 69.9265 553.115 68.0565 552.208 66.6965C551.415 65.2231 550.338 64.4865 548.978 64.4865C546.825 64.4865 544.615 65.9598 542.348 68.9065L541.328 68.2265C541.215 66.4131 541.612 64.2598 542.518 61.7665C543.425 59.2731 544.842 56.8931 546.768 54.6265C548.695 52.2465 551.132 50.2631 554.078 48.6765C557.138 47.0898 560.708 46.2965 564.788 46.2965C570.795 46.2965 575.159 48.0531 577.879 51.5665C580.599 54.9665 581.958 59.1031 581.958 63.9765C581.958 64.7698 581.902 65.6198 581.788 66.5265C581.788 67.3198 581.732 68.1131 581.618 68.9065C585.698 61.5398 589.948 55.9298 594.368 52.0765C598.902 48.1098 603.095 46.1265 606.949 46.1265C610.575 46.1265 613.239 47.5431 614.939 50.3765C616.639 53.2098 617.488 56.6098 617.488 60.5765C617.488 64.2031 616.752 67.8865 615.278 71.6265C613.918 75.3665 611.822 78.4831 608.988 80.9765C606.268 83.3565 602.925 84.4898 598.958 84.3765L598.278 84.0365C598.165 81.0898 597.202 78.7665 595.389 77.0665C593.575 75.3665 591.535 74.5165 589.268 74.5165C586.208 74.5165 583.318 76.0465 580.598 79.1065C577.992 82.1665 576.689 86.5865 576.689 92.3665C576.689 95.8798 577.085 99.6765 577.879 103.756C578.672 107.836 579.069 111.293 579.069 114.126C579.069 117.526 578.275 120.643 576.689 123.476C575.102 126.31 573.062 128.576 570.569 130.276C568.075 131.863 565.355 132.656 562.408 132.656Z" fill="#9D182B"/>
</g>
<g filter="url(#filter2_d_243_52)">
<path d="M483.788 133.167C475.288 133.167 468.261 131.467 462.708 128.067C457.154 124.667 453.018 120.19 450.298 114.637C447.691 108.97 446.388 102.963 446.388 96.6166C446.388 90.61 447.464 84.6033 449.618 78.5966C451.884 72.59 455.114 67.15 459.308 62.2766C463.614 57.29 468.828 53.3233 474.948 50.3766C481.068 47.3166 488.094 45.7866 496.028 45.7866C504.528 45.7866 511.498 47.5433 516.938 51.0566C522.491 54.4566 526.571 58.99 529.178 64.6566C531.898 70.3233 533.258 76.3866 533.258 82.8466C533.258 88.74 532.181 94.69 530.028 100.697C527.874 106.59 524.644 112.03 520.338 117.017C516.144 121.89 510.988 125.8 504.868 128.747C498.748 131.693 491.721 133.167 483.788 133.167ZM488.378 118.717C491.438 118.717 493.988 117.13 496.028 113.957C498.068 110.783 499.598 106.76 500.618 101.887C501.638 96.9 502.148 91.8566 502.148 86.7566C502.148 82.2233 501.694 77.9733 500.788 74.0066C499.994 69.9266 498.748 66.64 497.048 64.1466C495.348 61.54 493.138 60.2366 490.418 60.2366C487.471 60.2366 484.921 61.8233 482.768 64.9966C480.728 68.1699 479.198 72.1933 478.178 77.0666C477.158 81.94 476.648 86.9833 476.648 92.1966C476.648 96.73 477.044 101.037 477.838 105.117C478.744 109.083 480.048 112.37 481.748 114.977C483.448 117.47 485.658 118.717 488.378 118.717Z" fill="#9D182B"/>
</g>
<g filter="url(#filter3_d_243_52)">
<path d="M419.46 133.167C415.38 133.167 410.734 132.43 405.52 130.957C400.42 129.483 395.037 127.897 389.37 126.197C383.817 124.383 378.264 123.08 372.71 122.287C368.857 125.913 365.23 128.52 361.83 130.107C358.544 131.58 355.597 132.317 352.99 132.317C349.704 132.317 346.927 131.353 344.66 129.427C342.394 127.5 340.694 125.063 339.56 122.117C338.427 119.057 337.86 115.94 337.86 112.767C337.86 109.48 338.427 106.363 339.56 103.417C340.807 100.47 342.677 98.0899 345.17 96.2766C347.664 94.3499 350.837 93.3866 354.69 93.3866C355.484 93.3866 356.334 93.4432 357.24 93.5566C358.147 93.6699 359.11 93.8399 360.13 94.0666C362.284 87.4932 364.154 80.2399 365.74 72.3066C367.44 64.2599 368.744 56.3832 369.65 48.6766C370.67 40.9699 371.18 34.2832 371.18 28.6166C371.18 26.3499 371.067 24.7632 370.84 23.8566C370.614 22.8366 370.217 21.8166 369.65 20.7966L369.48 20.2866C370.84 16.6599 373.107 13.8266 376.28 11.7866C379.454 9.74657 382.797 8.72656 386.31 8.72656C390.164 8.72656 393.337 10.1432 395.83 12.9766C398.324 15.6966 399.57 20.2866 399.57 26.7466C399.57 30.8266 399.06 35.9266 398.04 42.0466C397.134 48.0532 395.83 54.5699 394.13 61.5966C392.43 68.5099 390.56 75.3666 388.52 82.1666C386.48 88.9666 384.44 95.0299 382.4 100.357C387.387 101.49 392.374 102.793 397.36 104.267C402.46 105.74 407.447 106.477 412.32 106.477C416.06 106.477 419.63 105.797 423.03 104.437C426.544 103.077 429.83 100.583 432.89 96.9566C435.157 98.4299 436.8 100.527 437.82 103.247C438.954 105.967 439.52 108.857 439.52 111.917C439.52 115.317 438.784 118.66 437.31 121.947C435.95 125.12 433.797 127.783 430.85 129.937C427.904 132.09 424.107 133.167 419.46 133.167Z" fill="#9D182B"/>
</g>
<g filter="url(#filter4_d_243_52)">
<path d="M278.676 132.826C274.709 132.826 271.253 131.523 268.306 128.916C265.359 126.31 263.886 122.06 263.886 116.166C263.886 115.6 263.886 115.033 263.886 114.466C263.886 113.9 263.943 113.333 264.056 112.766C260.656 119.566 256.803 124.61 252.496 127.896C248.303 131.07 244.053 132.656 239.746 132.656C235.779 132.656 232.039 131.296 228.526 128.576C225.013 125.743 222.179 121.606 220.026 116.166C217.873 110.726 216.796 104.153 216.796 96.4465C216.796 88.5131 217.873 81.4298 220.026 75.1965C222.293 68.9631 225.239 63.6931 228.866 59.3865C232.493 55.0798 236.459 51.8498 240.766 49.6965C245.073 47.4298 249.266 46.2965 253.346 46.2965C257.879 46.2965 261.959 47.7131 265.586 50.5465C269.213 53.2665 271.706 57.6298 273.066 63.6365C273.406 61.7098 273.633 59.9531 273.746 58.3665C273.973 56.7798 274.086 55.7031 274.086 55.1365C274.199 52.0765 275.729 49.8098 278.676 48.3365C281.736 46.8631 285.079 46.1265 288.706 46.1265C291.879 46.1265 294.883 46.7498 297.716 47.9965C300.549 49.2431 302.476 51.3398 303.496 54.2865L303.836 55.3065C302.476 58.3665 301.116 62.0498 299.756 66.3565C298.396 70.6631 297.149 75.1965 296.016 79.9565C294.883 84.6031 293.976 89.1931 293.296 93.7265C292.616 98.1465 292.276 102.056 292.276 105.456C292.276 109.196 292.673 111.803 293.466 113.276C294.259 114.636 295.223 115.316 296.356 115.316C298.283 115.316 300.039 113.956 301.626 111.236L302.986 111.916C302.986 115.77 301.739 119.283 299.246 122.456C296.753 125.63 293.636 128.18 289.896 130.106C286.156 131.92 282.416 132.826 278.676 132.826ZM250.966 111.236C253.913 111.236 257.143 108.63 260.656 103.416C264.283 98.0898 267.399 90.4965 270.006 80.6365C270.233 79.6165 270.459 78.6531 270.686 77.7465C270.913 76.7265 271.083 75.7631 271.196 74.8565C269.383 70.6631 267.456 67.7165 265.416 66.0165C263.489 64.2031 261.563 63.2965 259.636 63.2965C256.803 63.2965 254.139 64.8265 251.646 67.8865C249.266 70.8331 247.283 74.5731 245.696 79.1065C244.223 83.6398 243.486 88.1731 243.486 92.7065C243.486 98.9398 244.166 103.586 245.526 106.646C246.999 109.706 248.813 111.236 250.966 111.236Z" fill="#9D182B"/>
</g>
<g filter="url(#filter5_d_243_52)">
<path d="M136.579 132.487C132.386 132.487 128.589 130.843 125.189 127.557C121.789 124.157 120.089 119.453 120.089 113.447C120.089 110.5 120.486 107.157 121.279 103.417C122.073 99.6766 122.923 95.88 123.829 92.0266C124.849 88.1733 125.756 84.5466 126.549 81.1466C127.343 77.7466 127.739 74.97 127.739 72.8166C127.739 70.55 127.286 68.7933 126.379 67.5466C125.473 66.1866 124.283 65.5066 122.809 65.5066C120.883 65.5066 118.786 66.64 116.519 68.9066L115.499 68.2266C115.386 66.4133 115.783 64.26 116.689 61.7666C117.596 59.2733 118.956 56.8933 120.769 54.6266C122.696 52.2466 125.133 50.2633 128.079 48.6766C131.026 47.09 134.539 46.2966 138.619 46.2966C144.626 46.2966 149.046 48.0533 151.879 51.5666C154.826 54.9666 156.299 59.16 156.299 64.1466C156.299 65.96 156.129 67.7166 155.789 69.4166C158.169 65.9033 161.116 62.39 164.629 58.8766C168.143 55.25 171.996 52.2466 176.189 49.8666C180.496 47.4866 184.916 46.2966 189.449 46.2966C194.776 46.2966 198.403 47.9966 200.329 51.3966C202.256 54.7966 203.219 59.0466 203.219 64.1466C203.219 68.9066 202.709 74.0066 201.689 79.4466C200.669 84.8866 199.649 90.1566 198.629 95.2566C197.609 100.243 197.099 104.437 197.099 107.837C197.099 112.37 198.403 114.637 201.009 114.637C202.369 114.637 203.559 114.24 204.579 113.447C205.599 112.54 206.279 111.69 206.619 110.897L207.809 111.407C207.809 115.6 206.619 119.283 204.239 122.457C201.973 125.63 199.083 128.123 195.569 129.937C192.056 131.637 188.486 132.487 184.859 132.487C180.439 132.487 176.529 130.957 173.129 127.897C169.729 124.837 168.029 119.85 168.029 112.937C168.029 108.857 168.539 104.437 169.559 99.6766C170.693 94.9166 171.769 90.3266 172.789 85.9066C173.809 81.4866 174.319 77.86 174.319 75.0266C174.319 73.3266 173.979 72.0233 173.299 71.1166C172.733 70.0966 171.656 69.5866 170.069 69.5866C167.463 69.5866 164.573 70.7766 161.399 73.1566C158.339 75.5366 155.676 78.71 153.409 82.6766C151.256 86.6433 150.179 91.0066 150.179 95.7666C150.179 98.8266 150.519 101.773 151.199 104.607C151.993 107.44 152.389 110.5 152.389 113.787C152.389 119.907 150.803 124.553 147.629 127.727C144.456 130.9 140.773 132.487 136.579 132.487Z" fill="#9D182B"/>
</g>
<g filter="url(#filter6_d_243_52)">
<path d="M47.86 133.167C40.2667 133.167 33.6933 131.807 28.14 129.087C22.7 126.253 18.1667 122.457 14.54 117.697C11.0267 112.823 8.36333 107.327 6.55 101.207C4.85 95.0866 4 88.6266 4 81.8266C4 73.2133 5.30333 64.6 7.91 55.9866C10.63 47.3733 14.54 39.4966 19.64 32.3566C24.8533 25.2166 31.2 19.4933 38.68 15.1866C46.16 10.7666 54.7167 8.55664 64.35 8.55664C71.9433 8.55664 78.46 9.9733 83.9 12.8066C89.4533 15.5266 93.9867 19.3233 97.5 24.1966C101.127 28.9566 103.79 34.3966 105.49 40.5166C107.303 46.6366 108.21 53.0966 108.21 59.8966C108.21 68.3966 106.85 77.01 104.13 85.7366C101.523 94.35 97.6133 102.227 92.4 109.367C87.3 116.507 81.01 122.287 73.53 126.707C66.05 131.013 57.4933 133.167 47.86 133.167ZM54.15 111.577C58.1167 111.577 61.5733 110.217 64.52 107.497C67.4667 104.777 69.9033 101.207 71.83 96.7866C73.87 92.2533 75.4 87.2666 76.42 81.8266C77.44 76.3866 77.95 70.89 77.95 65.3366C77.95 59.2166 77.27 53.4933 75.91 48.1666C74.6633 42.7266 72.6233 38.3633 69.79 35.0766C67.07 31.6766 63.5 29.9766 59.08 29.9766C55.2267 29.9766 51.77 31.3366 48.71 34.0566C45.65 36.6633 43.0433 40.2333 40.89 44.7666C38.7367 49.1866 37.0933 54.1166 35.96 59.5566C34.94 64.8833 34.43 70.2666 34.43 75.7066C34.43 81.94 35.1667 87.7766 36.64 93.2166C38.1133 98.6566 40.3233 103.077 43.27 106.477C46.2167 109.877 49.8433 111.577 54.15 111.577Z" fill="#9D182B"/>
</g>
<defs>
<filter id="filter0_d_243_52" x="614.878" y="0" width="88.4102" height="141.167" filterUnits="userSpaceOnUse" color-interpolation-filters="sRGB">
<feFlood flood-opacity="0" result="BackgroundImageFix"/>
<feColorMatrix in="SourceAlpha" type="matrix" values="0 0 0 0 0 0 0 0 0 0 0 0 0 0 0 0 0 0 127 0" result="hardAlpha"/>
<feOffset dy="4"/>
<feGaussianBlur stdDeviation="2"/>
<feComposite in2="hardAlpha" operator="out"/>
<feColorMatrix type="matrix" values="0 0 0 0 0 0 0 0 0 0 0 0 0 0 0 0 0 0 0.25 0"/>
<feBlend mode="normal" in2="BackgroundImageFix" result="effect1_dropShadow_243_52"/>
<feBlend mode="normal" in="SourceGraphic" in2="effect1_dropShadow_243_52" result="shape"/>
</filter>
<filter id="filter1_d_243_52" x="537.31" y="46.1265" width="84.1787" height="94.53" filterUnits="userSpaceOnUse" color-interpolation-filters="sRGB">
<feFlood flood-opacity="0" result="BackgroundImageFix"/>
<feColorMatrix in="SourceAlpha" type="matrix" values="0 0 0 0 0 0 0 0 0 0 0 0 0 0 0 0 0 0 127 0" result="hardAlpha"/>
<feOffset dy="4"/>
<feGaussianBlur stdDeviation="2"/>
<feComposite in2="hardAlpha" operator="out"/>
<feColorMatrix type="matrix" values="0 0 0 0 0 0 0 0 0 0 0 0 0 0 0 0 0 0 0.25 0"/>
<feBlend mode="normal" in2="BackgroundImageFix" result="effect1_dropShadow_243_52"/>
<feBlend mode="normal" in="SourceGraphic" in2="effect1_dropShadow_243_52" result="shape"/>
</filter>
<filter id="filter2_d_243_52" x="442.388" y="45.7866" width="94.8701" height="95.3799" filterUnits="userSpaceOnUse" color-interpolation-filters="sRGB">
<feFlood flood-opacity="0" result="BackgroundImageFix"/>
<feColorMatrix in="SourceAlpha" type="matrix" values="0 0 0 0 0 0 0 0 0 0 0 0 0 0 0 0 0 0 127 0" result="hardAlpha"/>
<feOffset dy="4"/>
<feGaussianBlur stdDeviation="2"/>
<feComposite in2="hardAlpha" operator="out"/>
<feColorMatrix type="matrix" values="0 0 0 0 0 0 0 0 0 0 0 0 0 0 0 0 0 0 0.25 0"/>
<feBlend mode="normal" in2="BackgroundImageFix" result="effect1_dropShadow_243_52"/>
<feBlend mode="normal" in="SourceGraphic" in2="effect1_dropShadow_243_52" result="shape"/>
</filter>
<filter id="filter3_d_243_52" x="333.86" y="8.72656" width="109.66" height="132.44" filterUnits="userSpaceOnUse" color-interpolation-filters="sRGB">
<feFlood flood-opacity="0" result="BackgroundImageFix"/>
<feColorMatrix in="SourceAlpha" type="matrix" values="0 0 0 0 0 0 0 0 0 0 0 0 0 0 0 0 0 0 127 0" result="hardAlpha"/>
<feOffset dy="4"/>
<feGaussianBlur stdDeviation="2"/>
<feComposite in2="hardAlpha" operator="out"/>
<feColorMatrix type="matrix" values="0 0 0 0 0 0 0 0 0 0 0 0 0 0 0 0 0 0 0.25 0"/>
<feBlend mode="normal" in2="BackgroundImageFix" result="effect1_dropShadow_243_52"/>
<feBlend mode="normal" in="SourceGraphic" in2="effect1_dropShadow_243_52" result="shape"/>
</filter>
<filter id="filter4_d_243_52" x="212.796" y="46.1265" width="95.04" height="94.7" filterUnits="userSpaceOnUse" color-interpolation-filters="sRGB">
<feFlood flood-opacity="0" result="BackgroundImageFix"/>
<feColorMatrix in="SourceAlpha" type="matrix" values="0 0 0 0 0 0 0 0 0 0 0 0 0 0 0 0 0 0 127 0" result="hardAlpha"/>
<feOffset dy="4"/>
<feGaussianBlur stdDeviation="2"/>
<feComposite in2="hardAlpha" operator="out"/>
<feColorMatrix type="matrix" values="0 0 0 0 0 0 0 0 0 0 0 0 0 0 0 0 0 0 0.25 0"/>
<feBlend mode="normal" in2="BackgroundImageFix" result="effect1_dropShadow_243_52"/>
<feBlend mode="normal" in="SourceGraphic" in2="effect1_dropShadow_243_52" result="shape"/>
</filter>
<filter id="filter5_d_243_52" x="111.48" y="46.2966" width="100.329" height="94.1899" filterUnits="userSpaceOnUse" color-interpolation-filters="sRGB">
<feFlood flood-opacity="0" result="BackgroundImageFix"/>
<feColorMatrix in="SourceAlpha" type="matrix" values="0 0 0 0 0 0 0 0 0 0 0 0 0 0 0 0 0 0 127 0" result="hardAlpha"/>
<feOffset dy="4"/>
<feGaussianBlur stdDeviation="2"/>
<feComposite in2="hardAlpha" operator="out"/>
<feColorMatrix type="matrix" values="0 0 0 0 0 0 0 0 0 0 0 0 0 0 0 0 0 0 0.25 0"/>
<feBlend mode="normal" in2="BackgroundImageFix" result="effect1_dropShadow_243_52"/>
<feBlend mode="normal" in="SourceGraphic" in2="effect1_dropShadow_243_52" result="shape"/>
</filter>
<filter id="filter6_d_243_52" x="0" y="8.55664" width="112.21" height="132.61" filterUnits="userSpaceOnUse" color-interpolation-filters="sRGB">
<feFlood flood-opacity="0" result="BackgroundImageFix"/>
<feColorMatrix in="SourceAlpha" type="matrix" values="0 0 0 0 0 0 0 0 0 0 0 0 0 0 0 0 0 0 127 0" result="hardAlpha"/>
<feOffset dy="4"/>
<feGaussianBlur stdDeviation="2"/>
<feComposite in2="hardAlpha" operator="out"/>
<feColorMatrix type="matrix" values="0 0 0 0 0 0 0 0 0 0 0 0 0 0 0 0 0 0 0.25 0"/>
<feBlend mode="normal" in2="BackgroundImageFix" result="effect1_dropShadow_243_52"/>
<feBlend mode="normal" in="SourceGraphic" in2="effect1_dropShadow_243_52" result="shape"/>
</filter>
</defs>
</svg>
