<svg width="708" height="160" viewBox="0 0 708 160" fill="none" xmlns="http://www.w3.org/2000/svg">
<path d="M89.487 48.046C89.487 12.0465 31.5065 -0.923111 19.4869 48.046C7.46728 97.0151 28.9775 120.046 46.4783 121.046C64.9474 122.101 82.9869 110.047 85.487 58.0466L112.987 69.046C122.154 62.7126 140.252 50.0464 134.487 75.546C124.18 121.138 130.145 134.38 129.978 141.047L139.487 75.546C151.654 65.2126 193.484 51.046 188.984 69.046C185.453 83.1714 155.487 141.046 196.987 121.046C190.151 89.0464 187.878 23.347 253.478 32.5464L246.478 59.0466C230.145 56.7133 230.478 64.0466 222.478 93.5466C217.212 112.967 221.478 122.047 232.978 120.047C231.478 127.047 279.179 70.3497 283.478 48.046C279.978 86.5464 251.978 145.547 299.478 121.046L377.978 20.0465C385.478 19.2131 378.978 114.046 345.978 121.046C337.978 122.743 329.978 110.547 342.978 107.547C366.739 108.547 395.478 134.547 425.978 117.547C415.811 89.2133 426.678 24.3465 495.478 29.5465C475.645 50.3798 442.478 98.5466 466.478 123.547C495.739 154.027 539.978 85.0466 495.478 62.0466L537.478 66.5466C539.926 70.2744 558.511 54.3818 561.478 61.0466C567.478 65.5466 555.643 127.858 552.978 143.047C567.478 90.5466 601.978 40.0466 601.478 71.5466H630.978C650.478 93.0466 670.837 92.8135 677.478 75.5466C684.978 56.0466 653.749 62.4578 638.478 75.5466C617.478 93.5466 627.478 149.547 691.978 115.047L687.978 57.0466L644.478 61.5466C653.812 60.2133 674.478 32.5466 675.978 17.0466" stroke="white" stroke-width="32" stroke-linecap="round" stroke-linejoin="round"/>
</svg>
