<svg width="727" height="241" viewBox="0 0 727 241" fill="none" xmlns="http://www.w3.org/2000/svg">
<path d="M206.5 58.0741C212.08 54.3542 262.087 -3.25384 267.868 0.144569C273.649 3.54292 276.981 9.94551 276.444 16.6299L272.109 70.6378L282.522 58.0674C287.896 51.5803 297.128 49.8416 304.493 53.9297C311.858 58.018 315.265 66.7734 312.602 74.7647L300.752 110.313L376.186 21.8741C380.943 16.2963 388.673 14.2754 395.552 16.8106C402.43 19.3458 407 25.8995 407 33.2305V56.2305C407 57.9848 406.736 59.7295 406.218 61.4053L399.718 82.4053C399.634 82.6761 399.543 82.9446 399.446 83.211L395.582 93.835L391 108.417V118.195C392.313 118.504 393.597 118.964 394.826 119.578L408 126.165V118.731C408 118.407 408.009 118.083 408.027 117.76L413.527 18.7598L413.576 18.0938C414.218 11.2468 418.824 5.38298 425.375 3.15922C432.137 0.863739 439.616 2.90748 444.271 8.32327L484.409 55.0215C487.392 53.8077 490.725 53.4058 494.07 54.002L544.701 63.0254L566.201 67.0255L566.825 67.1534C571.11 68.1124 574.802 70.629 577.269 74.1026L581.375 70.7217C582.974 69.4049 584.794 68.3827 586.751 67.7022L598.251 63.7022C604.389 61.5671 611.205 63.0096 615.952 67.4483C620.615 71.8083 622.524 78.3527 620.962 84.5235C621.344 84.1312 621.745 83.7545 622.166 83.3965L632.166 74.8965C633.074 74.1248 634.056 73.4508 635.095 72.8819L638.152 61.9981L638.302 61.4932C639.089 58.9844 640.432 56.6832 642.233 54.7618L679.733 14.7617C686.344 7.71082 697.418 7.35363 704.469 13.9639C711.52 20.5742 711.877 31.6483 705.267 38.6993L678.961 66.7569C683.252 66.9927 687.319 68.8018 690.374 71.8565L698.874 80.3565C702.87 84.3528 704.691 90.0327 703.762 95.6075L701.762 107.607C700.999 112.186 698.449 116.273 694.672 118.971L693.749 119.629L705.256 116.753C713.339 114.732 721.725 118.691 725.304 126.215C728.882 133.739 726.659 142.743 719.99 147.737L600.49 237.237C595.062 241.302 587.775 241.866 581.787 238.684C575.799 235.501 572.189 229.145 572.521 222.372L575.435 163.04C571.894 166.614 566.885 168.592 561.622 168.176C553.717 167.551 547.221 161.69 545.788 153.892L541.288 129.392C540.613 125.715 541.132 121.918 542.771 118.558L549.951 103.837L548.814 99.3917L538.313 97.4376L533.674 96.6114L534.69 99.088C536.378 103.202 536.436 107.805 534.854 111.96L532 119.45V139.23C532 146.728 527.223 153.394 520.123 155.803L492.123 165.303C489.052 166.345 485.752 166.512 482.591 165.788L458.591 160.288C451.821 158.737 446.609 153.328 445.31 146.505L443 134.379V143.23C443 151.688 436.952 158.935 428.631 160.448L412.131 163.448C408.405 164.126 404.561 163.576 401.174 161.883L386.464 154.527L375.446 159.293C374.808 159.569 374.154 159.807 373.487 160.005L354.987 165.505C346.13 168.138 336.751 163.431 333.569 154.755L328.069 139.755C327.312 137.689 326.967 135.564 326.998 133.474L315.814 146.587C315.515 146.938 315.201 147.278 314.874 147.604L310.874 151.604C310.445 152.034 309.993 152.441 309.521 152.823L291.021 167.823C284.061 173.467 273.962 172.941 267.626 166.604L259.626 158.604C257.368 156.347 255.81 153.559 255.045 150.562L252.718 156.306C249.952 163.126 243.215 167.488 235.86 167.219C228.505 166.95 222.104 162.107 219.845 155.103L214.845 139.603C214.775 139.386 214.71 139.168 214.648 138.949L214.223 137.43L211.774 152.531C210.4 161.004 203.084 167.23 194.5 167.23H185C179.257 167.23 173.88 164.413 170.611 159.691L166.111 153.191C164.085 150.265 163 146.79 163 143.23V132.23C163 129.514 163.633 126.834 164.848 124.404L167.5 119.1V112.731C167.5 111.175 167.707 109.627 168.116 108.126L164.848 97.3887L150.984 112.625V162.948C148.853 171.531 140.654 177.174 131.876 176.101C123.098 175.027 116.5 167.574 116.5 158.73V147.103L115.587 137.972C115.217 134.276 116.033 130.559 117.916 127.357L120.5 122.964V116.231C120.5 114.35 120.804 112.481 121.398 110.696L123.938 103.073L124.151 101.731L115.587 91.2305C111.421 91.2305 109.796 64.1104 106.628 61.4053V94.543L104.707 104.917C104.664 105.148 104.617 105.379 104.564 105.608L102.064 116.608C101.51 119.05 100.437 121.344 98.9199 123.336L91.6436 132.886L83.7256 146.858C82.0494 149.816 79.5476 152.222 76.5264 153.781L61.0264 161.781C57.5 163.601 53.4597 164.169 49.5684 163.391L34.5684 160.391C31.3103 159.739 28.3044 158.174 25.9033 155.877L14.4033 144.877C12.8171 143.36 11.5302 141.557 10.6104 139.564L1.61035 120.065C0.549191 117.765 0 115.263 0 112.731V96.2305C0 94.9732 0.135639 93.7196 0.404297 92.4913L3.9043 76.4913L4.00488 76.0587C4.25181 75.0527 4.58691 74.0702 5.00781 73.1231L17.0078 46.1231L17.2041 45.6983C19.2809 41.3425 23.0694 38.03 27.6797 36.5586L39 32.9454H49.5684C49.5684 26.1171 53.7992 34.0896 60 31.2304C66.2007 28.3715 78.5328 32.1249 83.7256 36.5586L98.9199 45.6983L115.587 86.626C115.587 77.7305 124.433 63.3637 126.5 64.1905L147 71.5206C149.484 70.2003 154.757 84.3272 158 84.3272L170.611 72.9122L190.5 67.5137C190.379 61.538 199.027 76.2276 204 72.9122L206.5 58.0741ZM612.884 114.008L609.304 186.908L635.606 167.209C630.291 165.302 625.995 160.864 624.522 154.975L616.522 122.975C616.175 121.587 616 120.161 616 118.731V102.645L612.884 114.008ZM480.511 114.102L476.639 123.931L477.552 128.726L485.573 130.564L497 126.688V116.231C497 114.102 497.389 111.991 498.146 110.001L499.682 105.969L496.097 97.2296L493.714 95.3965L480.511 114.102ZM62.4775 62.1758C62.2608 62.2545 62.0419 62.3317 61.8203 62.4024L45.8018 67.5137L37.7139 85.713L35 98.1212V108.885L40.9971 121.88L46.4209 127.067L50.4209 127.868L55.8428 125.069L61.7744 114.603C62.1643 113.915 62.6008 113.254 63.0801 112.625L68.7773 105.147L70.3564 98.1973L72.5 86.626V71.5206L70.502 67.126L67.3711 64.1905L62.4775 62.1758ZM342.863 114.874L356 108.079V105.731C356 103.951 356.271 102.181 356.805 100.483L357.776 97.3887L342.863 114.874ZM443.348 112.947L448.718 99.3165L448.917 98.8321C449.399 97.7086 449.998 96.6383 450.703 95.6387L460.832 81.2872L446.061 64.1016L443.348 112.947ZM213.69 66.4678L214.087 86.0596L214.34 84.7989L214.44 84.3272C215.549 79.4799 218.672 75.324 223.038 72.9122C227.293 70.5615 232.322 70.0938 236.92 71.5919L238.667 49.8165L213.69 66.4678Z" fill="white"/>
</svg>
