<svg width="711" height="158" viewBox="0 0 711 158" fill="none" xmlns="http://www.w3.org/2000/svg">
<path d="M88.3575 47.0006C81.3551 16.5012 37.7593 -1.01217 22.3574 47.0006C5.35561 100.001 25.3478 124.501 48.3487 124.501C71.3437 124.501 85.8574 109.001 88.3575 57.0012L115.858 68.0006C125.024 61.6672 142.158 54.1006 137.358 74.5006C126.652 120.001 133.015 133.335 132.849 140.001L142.358 74.5006C154.524 64.1672 196.355 50.0006 191.855 68.0006C188.324 82.126 158.358 140.001 199.858 120.001C193.021 88.001 190.749 22.3016 256.349 31.501L249.349 58.0012C233.015 55.6679 233.349 63.0012 225.349 92.5012C220.082 111.921 223.349 120.001 234.849 118.001C233.349 125.001 281.05 69.3043 285.349 47.0006C275.515 82.5006 254.849 144.501 302.349 120.001L380.849 19.0011C388.349 18.1678 381.849 113.001 348.849 120.001C340.849 121.698 332.849 109.501 345.849 106.501C369.609 107.501 398.349 133.501 428.849 116.501C418.682 88.1679 429.549 23.3011 498.349 28.5011C478.515 49.3344 443.349 99.5012 467.349 124.501C496.61 154.981 537.849 82.0012 498.349 61.0012L540.349 65.5012C542.797 69.229 560.382 54.3364 563.349 61.0012C569.349 65.5012 558.513 126.813 555.849 142.001C570.349 89.5012 601.849 46.0012 604.349 70.5012H633.849C653.349 92.0012 673.708 91.7681 680.349 74.5012C687.849 55.0012 656.619 61.4124 641.349 74.5012C620.349 92.5012 630.349 148.501 694.849 114.001L690.849 56.0012L647.349 60.5012C656.682 59.1679 677.349 31.5012 678.849 16.0012" stroke="white" stroke-width="32" stroke-linecap="round" stroke-linejoin="round"/>
</svg>
